<?xml version="1.0" standalone="no"?>
<!DOCTYPE svg PUBLIC "-//W3C//DTD SVG 20010904//EN"
 "http://www.w3.org/TR/2001/REC-SVG-20010904/DTD/svg10.dtd">
<svg version="1.0" xmlns="http://www.w3.org/2000/svg"
 width="260.000000pt" height="260.000000pt" viewBox="0 0 260.000000 260.000000"
 preserveAspectRatio="xMidYMid meet">
<metadata>
Created by potrace 1.11, written by Peter Selinger 2001-2013
</metadata>
<g transform="translate(0.000000,260.000000) scale(0.100000,-0.100000)"
fill="#000000" stroke="none">
<path d="M2177 2357 c-42 -78 -162 -182 -304 -265 -38 -22 -180 -99 -318 -172
-415 -218 -548 -323 -603 -471 -62 -169 38 -364 185 -361 50 1 120 36 129 65
3 10 4 19 2 21 -110 69 -139 110 -146 201 -6 81 27 151 104 226 71 69 71 69
119 100 105 69 166 104 361 204 115 59 234 123 265 141 60 36 78 42 62 22 -6
-7 -79 -148 -163 -313 -84 -165 -163 -318 -175 -340 -12 -22 -66 -125 -120
-230 -255 -495 -319 -605 -434 -742 -65 -76 -153 -145 -236 -184 -42 -20 -66
-24 -150 -24 -88 0 -107 3 -155 26 -73 36 -127 90 -164 169 -25 53 -31 79 -33
142 -6 284 181 478 407 420 77 -19 180 -88 180 -121 0 -4 -25 -43 -56 -87 -59
-82 -84 -130 -84 -163 0 -24 44 -77 79 -96 l27 -13 89 125 c115 161 108 148
91 180 -19 37 -109 126 -166 163 -115 77 -276 95 -439 50 -199 -55 -315 -195
-320 -390 -8 -269 211 -450 543 -450 114 0 133 2 231 31 242 72 417 247 617
619 20 36 61 115 93 175 61 115 212 401 275 520 47 89 119 226 203 385 153
292 171 396 78 448 -50 28 -53 28 -74 -11z"/>
</g>
</svg>
