<svg width="334" height="334" viewBox="0 0 334 334" fill="none" xmlns="http://www.w3.org/2000/svg">
<path fill-rule="evenodd" clip-rule="evenodd" d="M20.2162 0L40.4384 13.0395L20.2162 26.079L0 13.0395L20.2162 0ZM20.2163 1.2465L1.93263 13.0395L20.2163 24.8325L38.5053 13.0395L20.2163 1.2465Z" transform="translate(0.721191 100.787)" fill="#414042"/>
<path fill-rule="evenodd" clip-rule="evenodd" d="M19.3919 12.3247L38.5056 0L38.7894 0.440195L19.3919 12.948L0 0.440177L0.283903 1.87606e-05L19.3919 12.3247Z" transform="translate(1.54541 217.781)" fill="#231F20"/>
<path fill-rule="evenodd" clip-rule="evenodd" d="M0 104.174V0H0.523774V104.174H0Z" transform="translate(1.42578 113.827)" fill="#231F20"/>
<path fill-rule="evenodd" clip-rule="evenodd" d="M0 104.174V0H1.04755V104.174H0Z" transform="translate(20.4141 126.243)" fill="#414042"/>
<path fill-rule="evenodd" clip-rule="evenodd" d="M0 104.174V0H0.523774V104.174H0Z" transform="translate(39.9321 113.827)" fill="#231F20"/>
<path d="M20.938 1.68394L40.1935 14.1002V118.275L20.938 130.691L1.68801 118.275V14.1002L20.938 1.68394ZM20.938 0C20.6167 0.000836215 20.3024 0.0943451 20.0325 0.26942L0.771343 12.6857C0.535201 12.8379 0.340849 13.0471 0.206089 13.2942C0.0713298 13.5413 0.000467396 13.8185 0 14.1002V118.275C0.000467396 118.556 0.0713298 118.833 0.206089 119.081C0.340849 119.328 0.535201 119.537 0.771343 119.689L20.0213 132.105C20.2912 132.28 20.6055 132.374 20.9268 132.375C21.2481 132.374 21.5624 132.28 21.8323 132.105L41.0878 119.689C41.324 119.537 41.5183 119.328 41.6531 119.081C41.7879 118.833 41.8587 118.556 41.8592 118.275V14.1002C41.8587 13.8185 41.7879 13.5413 41.6531 13.2942C41.5183 13.0471 41.324 12.8379 41.0878 12.6857L21.8435 0.26942C21.5736 0.0943451 21.2593 0.000836215 20.938 0V0Z" transform="translate(0 99.7266)" fill="#414042"/>
<path fill-rule="evenodd" clip-rule="evenodd" d="M0.56776 0L120.902 77.6073L120.335 78.4876L0 0.880345L0.56776 0Z" transform="translate(1.40381 55.9192)" fill="#414042"/>
<path fill-rule="evenodd" clip-rule="evenodd" d="M0.567789 0L120.902 77.6129L120.335 78.4932L0 0.880326L0.567789 0Z" transform="translate(1.40381 30.8004)" fill="#414042"/>
<path fill-rule="evenodd" clip-rule="evenodd" d="M1.04755 0V25.1188H0V0H1.04755Z" transform="translate(1.16357 31.2405)" fill="#414042"/>
<path fill-rule="evenodd" clip-rule="evenodd" d="M0 25.1132V0H1.04755V25.1132H0Z" transform="translate(121.499 108.853)" fill="#414042"/>
<path fill-rule="evenodd" clip-rule="evenodd" d="M0 77.6129L120.335 0L120.902 0.880326L0.567789 78.4932L0 77.6129Z" transform="translate(20.6543 213.834)" fill="#414042"/>
<path fill-rule="evenodd" clip-rule="evenodd" d="M0 77.6073L120.335 0L120.902 0.880345L0.56776 78.4876L0 77.6073Z" transform="translate(20.6543 238.952)" fill="#414042"/>
<path fill-rule="evenodd" clip-rule="evenodd" d="M1.04755 0V25.1188H0V0H1.04755Z" transform="translate(140.749 214.274)" fill="#414042"/>
<path fill-rule="evenodd" clip-rule="evenodd" d="M0 77.6129L120.335 0L120.902 0.880326L0.567789 78.4932L0 77.6129Z" transform="translate(1.40381 201.277)" fill="#414042"/>
<path fill-rule="evenodd" clip-rule="evenodd" d="M0 25.1132V0H1.04755V25.1132H0Z" transform="translate(1.16357 279.33)" fill="#414042"/>
<path fill-rule="evenodd" clip-rule="evenodd" d="M0.567789 0L120.902 77.6129L120.335 78.4932L0 0.880326L0.567789 0Z" transform="translate(20.6543 18.2438)" fill="#414042"/>
<path fill-rule="evenodd" clip-rule="evenodd" d="M0 25.1132V0H1.04755V25.1132H0Z" transform="translate(140.749 96.2969)" fill="#414042"/>
<path fill-rule="evenodd" clip-rule="evenodd" d="M20.2975 0V26.3639L0 39.6038V13.2399L20.2975 0ZM1.04755 13.8073V37.6698L19.25 25.7965V1.93401L1.04755 13.8073Z" transform="translate(121.499 95.3298)" fill="#414042"/>
<path fill-rule="evenodd" clip-rule="evenodd" d="M19.8223 0.877391L0.572315 13.434L0 12.5566L19.25 0L19.8223 0.877391Z" transform="translate(1.40137 18.2452)" fill="#414042"/>
<path d="M20.9324 1.68395L141.267 79.3193V104.41L122.017 116.967L1.68241 39.3593V14.2405L20.9324 1.68395V1.68395ZM20.9324 5.71088e-06C20.6092 -0.000236584 20.2928 0.0933249 20.0213 0.269434L0.765748 12.8316C0.531435 12.9839 0.338681 13.1925 0.204964 13.4386C0.0712459 13.6846 0.00079629 13.9603 0 14.2405V39.3593C0.000467396 39.6411 0.0713213 39.9182 0.206081 40.1654C0.340841 40.4125 0.535192 40.6217 0.771334 40.7739L121.112 118.387C121.381 118.562 121.696 118.653 122.017 118.651C122.34 118.651 122.657 118.557 122.928 118.381L142.178 105.825C142.412 105.671 142.604 105.461 142.737 105.214C142.87 104.967 142.939 104.691 142.938 104.41V79.3193C142.939 79.0366 142.868 78.7583 142.734 78.5101C142.599 78.262 142.404 78.0518 142.167 77.8992L21.8379 0.263824C21.5674 0.0907266 21.2531 -0.000833004 20.9324 5.71088e-06V5.71088e-06Z" transform="translate(0.00537109 17)" fill="#414042"/>
<path fill-rule="evenodd" clip-rule="evenodd" d="M0 0L20.2975 13.2399V39.6038L0 26.3639V0ZM1.04755 1.93401V25.7965L19.25 37.6698V13.8073L1.04755 1.93401Z" transform="translate(1.16357 278.363)" fill="#414042"/>
<path fill-rule="evenodd" clip-rule="evenodd" d="M19.25 13.434L0 0.877391L0.572315 0L19.8223 12.5566L19.25 13.434Z" transform="translate(121.736 201.279)" fill="#414042"/>
<path fill-rule="evenodd" clip-rule="evenodd" d="M120.694 0.125417C120.955 -0.0426003 121.29 -0.0417379 121.55 0.127619L140.8 12.6842C141.022 12.8293 141.156 13.0768 141.156 13.3423V38.4611C141.156 38.728 141.02 38.9767 140.796 39.1213L20.4615 116.729C20.201 116.897 19.866 116.896 19.6064 116.726L0.356426 104.17C0.13407 104.025 0 103.777 0 103.512V78.3985C0 78.1316 0.135514 77.883 0.35982 77.7383L120.694 0.125417ZM1.57132 78.8267V103.086L20.0381 115.132L139.585 38.0329V13.7678L121.118 1.72212L1.57132 78.8267Z" transform="translate(0.901855 200.932)" fill="#414042"/>
<path fill-rule="evenodd" clip-rule="evenodd" d="M0.523774 0C0.813047 0 1.04755 0.234502 1.04755 0.523774V1.77911C1.04755 2.06839 0.813047 2.30289 0.523774 2.30289C0.234502 2.30289 0 2.06839 0 1.77911V0.523774C0 0.234502 0.234502 0 0.523774 0ZM0.523774 3.76602C0.813047 3.76602 1.04755 4.00052 1.04755 4.28979V6.80047C1.04755 7.08974 0.813047 7.32424 0.523774 7.32424C0.234502 7.32424 0 7.08974 0 6.80047V4.28979C0 4.00052 0.234502 3.76602 0.523774 3.76602ZM0.523774 8.78737C0.813047 8.78737 1.04755 9.02187 1.04755 9.31115V11.8218C1.04755 12.1111 0.813047 12.3456 0.523774 12.3456C0.234502 12.3456 0 12.1111 0 11.8218V9.31115C0 9.02187 0.234502 8.78737 0.523774 8.78737ZM0.523774 13.8087C0.813047 13.8087 1.04755 14.0432 1.04755 14.3325V16.8432C1.04755 17.1325 0.813047 17.367 0.523774 17.367C0.234502 17.367 0 17.1325 0 16.8432V14.3325C0 14.0432 0.234502 13.8087 0.523774 13.8087ZM0.523774 18.8301C0.813047 18.8301 1.04755 19.0646 1.04755 19.3539V21.8645C1.04755 22.1538 0.813047 22.3883 0.523774 22.3883C0.234502 22.3883 0 22.1538 0 21.8645V19.3539C0 19.0646 0.234502 18.8301 0.523774 18.8301ZM0.523774 23.8514C0.813047 23.8514 1.04755 24.0859 1.04755 24.3752V26.8859C1.04755 27.1752 0.813047 27.4097 0.523774 27.4097C0.234502 27.4097 0 27.1752 0 26.8859V24.3752C0 24.0859 0.234502 23.8514 0.523774 23.8514ZM0.523774 28.8728C0.813047 28.8728 1.04755 29.1073 1.04755 29.3966V31.9072C1.04755 32.1965 0.813047 32.431 0.523774 32.431C0.234502 32.431 0 32.1965 0 31.9072V29.3966C0 29.1073 0.234502 28.8728 0.523774 28.8728ZM0.523774 33.8941C0.813047 33.8941 1.04755 34.1287 1.04755 34.4179V35.6733C1.04755 35.9625 0.813047 36.197 0.523774 36.197C0.234502 36.197 0 35.9625 0 35.6733V34.4179C0 34.1287 0.234502 33.8941 0.523774 33.8941Z" transform="translate(20.4141 75.8015)" fill="#414042"/>
<path fill-rule="evenodd" clip-rule="evenodd" d="M0.523774 0C0.813047 0 1.04755 0.234502 1.04755 0.523774V1.90962C1.04755 2.19889 0.813047 2.43339 0.523774 2.43339C0.234502 2.43339 0 2.19889 0 1.90962V0.523774C0 0.234502 0.234502 0 0.523774 0ZM0.523774 4.15753C0.813047 4.15753 1.04755 4.39204 1.04755 4.68131V7.453C1.04755 7.74227 0.813047 7.97677 0.523774 7.97677C0.234502 7.97677 0 7.74227 0 7.453V4.68131C0 4.39204 0.234502 4.15753 0.523774 4.15753ZM0.523774 9.70091C0.813047 9.70091 1.04755 9.93542 1.04755 10.2247V12.9964C1.04755 13.2857 0.813047 13.5202 0.523774 13.5202C0.234502 13.5202 0 13.2857 0 12.9964V10.2247C0 9.93542 0.234502 9.70091 0.523774 9.70091ZM0.523774 15.2443C0.813047 15.2443 1.04755 15.4788 1.04755 15.7681V18.5398C1.04755 18.829 0.813047 19.0635 0.523774 19.0635C0.234502 19.0635 0 18.829 0 18.5398V15.7681C0 15.4788 0.234502 15.2443 0.523774 15.2443ZM0.523774 20.7877C0.813047 20.7877 1.04755 21.0222 1.04755 21.3114V24.0831C1.04755 24.3724 0.813047 24.6069 0.523774 24.6069C0.234502 24.6069 0 24.3724 0 24.0831V21.3114C0 21.0222 0.234502 20.7877 0.523774 20.7877ZM0.523774 26.3311C0.813047 26.3311 1.04755 26.5656 1.04755 26.8548V29.6265C1.04755 29.9158 0.813047 30.1503 0.523774 30.1503C0.234502 30.1503 0 29.9158 0 29.6265V26.8548C0 26.5656 0.234502 26.3311 0.523774 26.3311ZM0.523774 31.8744C0.813047 31.8744 1.04755 32.1089 1.04755 32.3982V35.1699C1.04755 35.4592 0.813047 35.6937 0.523774 35.6937C0.234502 35.6937 0 35.4592 0 35.1699V32.3982C0 32.1089 0.234502 31.8744 0.523774 31.8744ZM0.523774 37.4178C0.813047 37.4178 1.04755 37.6523 1.04755 37.9416V39.3274C1.04755 39.6167 0.813047 39.8512 0.523774 39.8512C0.234502 39.8512 0 39.6167 0 39.3274V37.9416C0 37.6523 0.234502 37.4178 0.523774 37.4178Z" transform="translate(20.4141 238.869)" fill="#414042"/>
<path fill-rule="evenodd" clip-rule="evenodd" d="M0.523774 0C0.813047 0 1.04755 0.234502 1.04755 0.523774V1.84276C1.04755 2.13204 0.813047 2.36654 0.523774 2.36654C0.234502 2.36654 0 2.13204 0 1.84276V0.523774C0 0.234502 0.234502 0 0.523774 0ZM0.523774 3.95696C0.813047 3.95696 1.04755 4.19147 1.04755 4.48074V7.11871C1.04755 7.40799 0.813047 7.64249 0.523774 7.64249C0.234502 7.64249 0 7.40799 0 7.11871V4.48074C0 4.19147 0.234502 3.95696 0.523774 3.95696ZM0.523774 9.23292C0.813047 9.23292 1.04755 9.46742 1.04755 9.75669V12.3947C1.04755 12.6839 0.813047 12.9184 0.523774 12.9184C0.234502 12.9184 0 12.6839 0 12.3947V9.75669C0 9.46742 0.234502 9.23292 0.523774 9.23292ZM0.523774 14.5089C0.813047 14.5089 1.04755 14.7434 1.04755 15.0326V17.6706C1.04755 17.9599 0.813047 18.1944 0.523774 18.1944C0.234502 18.1944 0 17.9599 0 17.6706V15.0326C0 14.7434 0.234502 14.5089 0.523774 14.5089ZM0.523774 19.7848C0.813047 19.7848 1.04755 20.0193 1.04755 20.3086V22.9466C1.04755 23.2358 0.813047 23.4703 0.523774 23.4703C0.234502 23.4703 0 23.2358 0 22.9466V20.3086C0 20.0193 0.234502 19.7848 0.523774 19.7848ZM0.523774 25.0608C0.813047 25.0608 1.04755 25.2953 1.04755 25.5845V28.2225C1.04755 28.5118 0.813047 28.7463 0.523774 28.7463C0.234502 28.7463 0 28.5118 0 28.2225V25.5845C0 25.2953 0.234502 25.0608 0.523774 25.0608ZM0.523774 30.3367C0.813047 30.3367 1.04755 30.5712 1.04755 30.8605V33.4985C1.04755 33.7877 0.813047 34.0223 0.523774 34.0223C0.234502 34.0223 0 33.7877 0 33.4985V30.8605C0 30.5712 0.234502 30.3367 0.523774 30.3367ZM0.523774 35.6127C0.813047 35.6127 1.04755 35.8472 1.04755 36.1365V38.7744C1.04755 39.0637 0.813047 39.2982 0.523774 39.2982C0.234502 39.2982 0 39.0637 0 38.7744V36.1365C0 35.8472 0.234502 35.6127 0.523774 35.6127ZM0.523774 40.8886C0.813047 40.8886 1.04755 41.1231 1.04755 41.4124V44.0504C1.04755 44.3397 0.813047 44.5742 0.523774 44.5742C0.234502 44.5742 0 44.3397 0 44.0504V41.4124C0 41.1231 0.234502 40.8886 0.523774 40.8886ZM0.523774 46.1646C0.813047 46.1646 1.04755 46.3991 1.04755 46.6884V49.3263C1.04755 49.6156 0.813047 49.8501 0.523774 49.8501C0.234502 49.8501 0 49.6156 0 49.3263V46.6884C0 46.3991 0.234502 46.1646 0.523774 46.1646ZM0.523774 51.4405C0.813047 51.4405 1.04755 51.675 1.04755 51.9643V54.6023C1.04755 54.8916 0.813047 55.1261 0.523774 55.1261C0.234502 55.1261 0 54.8916 0 54.6023V51.9643C0 51.675 0.234502 51.4405 0.523774 51.4405ZM0.523774 56.7165C0.813047 56.7165 1.04755 56.951 1.04755 57.2403V59.8782C1.04755 60.1675 0.813047 60.402 0.523774 60.402C0.234502 60.402 0 60.1675 0 59.8782V57.2403C0 56.951 0.234502 56.7165 0.523774 56.7165ZM0.523774 61.9924C0.813047 61.9924 1.04755 62.2269 1.04755 62.5162V65.1542C1.04755 65.4435 0.813047 65.678 0.523774 65.678C0.234502 65.678 0 65.4435 0 65.1542V62.5162C0 62.2269 0.234502 61.9924 0.523774 61.9924ZM0.523774 67.2684C0.813047 67.2684 1.04755 67.5029 1.04755 67.7922V70.4301C1.04755 70.7194 0.813047 70.9539 0.523774 70.9539C0.234502 70.9539 0 70.7194 0 70.4301V67.7922C0 67.5029 0.234502 67.2684 0.523774 67.2684ZM0.523774 72.5443C0.813047 72.5443 1.04755 72.7788 1.04755 73.0681V74.3871C1.04755 74.6764 0.813047 74.9109 0.523774 74.9109C0.234502 74.9109 0 74.6764 0 74.3871V73.0681C0 72.7788 0.234502 72.5443 0.523774 72.5443Z" transform="translate(121.499 139.887)" fill="#414042"/>
<path fill-rule="evenodd" clip-rule="evenodd" d="M0 130.865V0H1.04755V130.865H0Z" transform="translate(211.409 125.44)" fill="#414042"/>
<path fill-rule="evenodd" clip-rule="evenodd" d="M0 80.7563V0H1.04755V80.7563H0Z" transform="translate(230.659 137.873)" fill="#414042"/>
<path fill-rule="evenodd" clip-rule="evenodd" d="M0.56278 0L63.4829 40.0778L62.9201 40.9614L0 0.883536L0.56278 0Z" transform="translate(211.651 125.173)" fill="#414042"/>
<path fill-rule="evenodd" clip-rule="evenodd" d="M0.567781 0L101.775 65.2752L101.208 66.1555L0 0.880331L0.567781 0Z" transform="translate(192.393 87.639)" fill="#414042"/>
<path fill-rule="evenodd" clip-rule="evenodd" d="M0 65.0507L101.079 0L101.646 0.880893L0.566909 65.9316L0 65.0507Z" transform="translate(230.899 153.139)" fill="#414042"/>
<path fill-rule="evenodd" clip-rule="evenodd" d="M0 40.4427L62.7021 0L63.2699 0.880318L0.567802 41.323L0 40.4427Z" transform="translate(230.899 152.914)" fill="#414042"/>
<path d="M20.9324 1.712L141.261 79.2912V104.853L20.9324 182.455L1.67683 169.91V14.2405L20.9324 1.712ZM20.9324 0.0280589C20.6073 0.0267309 20.2888 0.120345 20.0157 0.297496L0.765748 12.8597C0.531435 13.012 0.338681 13.2206 0.204964 13.4666C0.0712459 13.7126 0.00079629 13.9883 0 14.2686V169.91C0.00079629 170.19 0.0712459 170.466 0.204964 170.712C0.338681 170.958 0.531435 171.166 0.765748 171.319L20.0157 183.881C20.2888 184.058 20.6073 184.152 20.9324 184.15C21.2537 184.149 21.568 184.056 21.8379 183.881L142.167 106.274C142.404 106.121 142.599 105.911 142.734 105.663C142.868 105.414 142.939 105.136 142.938 104.853V79.2912C142.938 79.0095 142.867 78.7323 142.732 78.4852C142.597 78.2381 142.403 78.0289 142.167 77.8767L21.8379 0.263818C21.5665 0.0926994 21.2528 0.00130949 20.9324 0V0.0280589Z" transform="translate(191 73.8387)" fill="#414042"/>
<path d="M1.67683 3.08161L40.5512 27.8412L1.67683 52.8589V3.08161ZM0 0V55.9237L43.6702 27.8187L0 0Z" transform="translate(231.188 137.857)" fill="#414042"/>
</svg>
